PathFileType	3	(X/Y/Z)	D:\minhoCalibration\240510\subject1_KPNP\preferred\preferred17.trc
DataRate	CameraRate	NumFrames	NumMarkers	Units	OrigDataRate	OrigDataStartFrame	OrigNumFrames
200.0	200.0	18	10	mm	200.0	381	190	
Frame#	Time	Left_Ankle_Outer1			Left_Ankle_Inner1			Left_Knee_Outer1			Left_Knee_Inner1			Left_Wrist1			Right_Wrist1			Right_Knee_Inner1			Right_Knee_Outer1			Right_Ankle_Inner1			Right_Ankle_Outer1			
		X1	Y1	Z1	X2	Y2	Z2	X3	Y3	Z3	X4	Y4	Z4	X5	Y5	Z5	X6	Y6	Z6	X7	Y7	Z7	X8	Y8	Z8	X9	Y9	Z9	X10	Y10	Z10	
381	1.895	-449.88464	146.33914	-559.96832	-503.07578	155.42574	-546.62024	-399.2421	583.02203	-430.90265	-507.37869	555.05908	-444.68307	-360.36447	1028.4492	-626.22467	-713.36682	1075.5659	-576.01752	-738.41785	683.93884	-296.88696	-851.33203	720.83441	-349.68448	-699.63074	540.78009	-708.034	-786.39935	477.12439	-723.75232
382	1.9	-450.27921	148.7908	-559.94586	-503.48599	158.07161	-544.29791	-391.54041	585.68964	-436.50104	-500.59421	558.36774	-443.96671	-358.93149	1031.7153	-635.32593	-709.63263	1082.1256	-567.51837	-721.34937	699.03729	-275.5665	-837.35089	735.5907	-322.66553	-705.4151	561.97998	-689.18903	-793.70746	497.14615	-704.28107
383	1.905	-451.04141	150.92616	-559.81	-503.75305	160.63025	-541.08405	-384.33789	588.01764	-442.3743	-493.57983	561.36041	-443.10031	-358.09619	1034.6189	-644.53802	-704.15863	1088.1206	-559.75409	-702.97687	715.06116	-255.16805	-821.4505	751.49127	-295.75253	-710.08313	583.73047	-670.36969	-801.33093	517.82629	-682.07886
384	1.91	-452.00247	153.02229	-559.65973	-504.1684	163.26965	-538.9104	-377.71591	590.18347	-448.30817	-486.43234	564.29968	-441.69553	-357.97086	1037.2103	-653.84448	-700.23474	1094.8351	-551.23267	-683.21149	731.30896	-236.1825	-804.15051	768.29401	-269.80411	-716.09174	604.93091	-650.91425	-808.36908	540.29785	-657.13965
385	1.915	-453.13272	155.07693	-559.58813	-504.55148	165.87756	-536.72498	-371.41483	592.07458	-454.5141	-477.80658	567.02295	-440.22028	-358.44543	1039.3226	-663.24811	-695.12469	1100.265	-544.50372	-662.2702	748.06616	-218.15961	-784.64465	786.02814	-245.0657	-722.34351	625.76465	-630.08295	-815.75305	562.52228	-630.54016
386	1.92	-454.35843	156.98076	-559.53601	-505.1669	168.22551	-534.70679	-365.71667	593.62628	-460.7775	-470.77289	569.28784	-440.05573	-359.47177	1041.1235	-672.57135	-690.92944	1106.3665	-536.82117	-640.20331	764.9472	-201.45172	-764.09534	805.06042	-220.77544	-730.45984	645.58307	-607.32935	-825.40295	581.52203	-615.66034
387	1.925	-455.98889	158.51604	-559.52924	-505.84729	170.24103	-532.75427	-360.7348	594.79181	-466.94022	-464.30966	570.83746	-439.25116	-361.2746	1042.3296	-681.88385	-685.53119	1111.8956	-530.41925	-617.42432	781.99335	-186.29764	-741.38464	825.12604	-198.19518	-738.30206	665.16858	-584.39081	-833.04749	603.49591	-586.70551
388	1.93	-457.80298	159.80292	-559.39673	-506.70255	171.96568	-530.80176	-356.28769	595.64502	-473.02115	-458.07056	572.15436	-439.17908	-363.73849	1042.9507	-691.38519	-680.7525	1117.5962	-523.42993	-593.59198	799.27985	-173.29338	-716.63544	845.83154	-177.35031	-746.39545	684.01691	-560.30243	-840.8172	625.56348	-553.02246
389	1.935	-459.85626	160.83916	-559.31885	-507.68011	173.32904	-528.73376	-352.70102	596.05713	-478.82715	-451.90988	573.5968	-439.91232	-367.47552	1043.0219	-700.05914	-675.427	1122.6592	-517.43304	-568.86902	816.53381	-162.37372	-690.05908	866.60498	-159.02434	-754.11127	702.0733	-535.02106	-848.32434	647.24066	-516.1532
390	1.94	-462.15884	161.49489	-559.09045	-507.59543	174.28885	-525.20874	-350.03281	596.08038	-484.36932	-446.93784	574.29578	-440.54248	-371.54999	1043.0062	-708.6618	-670.80042	1128.5295	-510.29544	-543.75922	833.44891	-153.78996	-661.875	887.96283	-142.95976	-761.72253	719.07251	-508.44104	-855.75647	667.29877	-479.78497
391	1.945	-464.51782	161.92244	-558.66418	-509.23621	174.80966	-523.24908	-347.80978	595.82233	-489.51468	-442.91696	574.81281	-441.13708	-376.72702	1042.1796	-716.41815	-665.46436	1133.4729	-504.18292	-518.67761	849.68292	-147.65015	-632.8269	909.16821	-129.43387	-769.3316	734.80548	-479.44992	-862.59747	686.776	-442.69724
392	1.95	-467.22885	162.14503	-558.03717	-510.97708	175.26128	-521.00037	-346.41306	595.14386	-494.14169	-440.00995	574.60931	-442.03809	-382.31366	1041.1017	-723.47089	-659.33679	1138.5597	-498.44669	-493.59598	865.09998	-143.08908	-603.26471	930.02234	-118.58662	-776.82355	749.94995	-449.06042	-867.60352	706.02179	-403.01926
393	1.955	-470.17795	162.11217	-557.25	-513.0307	175.29774	-518.69525	-345.55124	594.30591	-498.3783	-437.56107	574.42407	-443.21152	-388.81158	1039.3445	-729.45502	-653.21918	1143.342	-492.93195	-468.82675	879.60773	-140.86674	-573.15833	950.04553	-111.24953	-784.21161	763.44855	-416.21017	-870.96118	724.58356	-359.98471
394	1.96	-473.47037	161.93089	-556.40302	-515.22638	175.54491	-516.66052	-345.56577	593.11072	-502.14197	-435.88644	574.32391	-444.20331	-395.21552	1037.4512	-734.88196	-647.10529	1148.2898	-487.64041	-445.74411	892.9881	-139.27675	-543.27466	969.41986	-106.15302	-790.08289	776.0163	-381.64325	-872.8833	742.38013	-313.42828
395	1.965	-477.00082	161.62796	-555.57684	-517.91498	175.39035	-514.67328	-345.93362	592.02533	-505.51367	-435.10959	573.93433	-444.98935	-401.80103	1035.1918	-739.65344	-641.48688	1153.6907	-482.38309	-423.42325	905.30884	-139.57004	-513.51044	987.24945	-104.16359	-794.54236	789.16821	-342.28271	-872.93677	759.84937	-263.63776
396	1.97	-481.13019	161.23129	-554.52338	-520.92566	175.19421	-512.49524	-346.95248	590.84033	-508.33493	-434.91592	573.5929	-445.64664	-408.42758	1032.6686	-743.78168	-636.08209	1159.5703	-477.16022	-402.1983	916.52325	-141.14001	-484.58264	1003.7185	-104.82136	-797.3609	799.4942	-299.71359	-870.20813	777.75317	-211.23413
397	1.975	-485.40479	160.84421	-553.65857	-524.33319	174.84943	-510.54651	-348.45111	589.77429	-510.68079	-435.12738	573.15302	-446.1138	-415.14725	1029.9111	-747.177	-628.31299	1164.338	-472.52396	-383.15265	926.98297	-143.70505	-456.99408	1018.4167	-107.65894	-797.35187	811.80115	-255.13461	-863.54126	796.96497	-157.04391
398	1.98	-489.90665	160.5256	-552.70093	-527.85199	174.46356	-508.73022	-350.10754	588.6723	-512.5777	-435.53909	572.61774	-446.83392	-421.76648	1026.9558	-749.91345	-623.01001	1169.2637	-469.50607	-364.8725	936.2782	-146.89876	-430.99939	1031.562	-112.66795	-793.98956	824.51599	-207.85428	-851.77069	818.25806	-101.97112
